<svg xmlns="http://www.w3.org/2000/svg" viewBox="9900 18712.5 9900 6237.5" width="1700" height="1071"><rect x="9900" y="18712.5" width="9900" height="6237.5" fill="#fffdf7"/><rect x="9500" y="15100" width="5600" height="6250" fill="#f6f1e3" fill-opacity=".5" stroke="#a08b62" stroke-width="10" stroke-dasharray="80 55"/><line x1="10950" y1="18450" x2="10750" y2="18450" stroke="#00695c" stroke-width="6"/><line x1="10950" y1="18550" x2="10750" y2="18550" stroke="#00695c" stroke-width="6"/><line x1="10950" y1="18650" x2="10750" y2="18650" stroke="#00695c" stroke-width="6"/><line x1="10950" y1="18750" x2="10750" y2="18750" stroke="#00695c" stroke-width="6"/><line x1="11850" y1="18450" x2="12050" y2="18450" stroke="#00695c" stroke-width="6"/><line x1="11200" y1="19100" x2="11200" y2="19300" stroke="#00695c" stroke-width="6"/><line x1="10950" y1="19800" x2="10750" y2="19800" stroke="#00695c" stroke-width="6"/><line x1="11450" y1="19800" x2="11650" y2="19800" stroke="#00695c" stroke-width="6"/><line x1="10900" y1="20200" x2="10700" y2="20200" stroke="#00695c" stroke-width="6"/><line x1="11400" y1="20200" x2="11600" y2="20200" stroke="#00695c" stroke-width="6"/><line x1="10900" y1="20600" x2="10700" y2="20600" stroke="#00695c" stroke-width="6"/><line x1="11400" y1="20600" x2="11600" y2="20600" stroke="#00695c" stroke-width="6"/><line x1="13150" y1="18550" x2="12950" y2="18550" stroke="#00695c" stroke-width="6"/><line x1="13650" y1="18550" x2="13850" y2="18550" stroke="#00695c" stroke-width="6"/><line x1="13150" y1="18950" x2="12950" y2="18950" stroke="#00695c" stroke-width="6"/><line x1="13650" y1="18950" x2="13850" y2="18950" stroke="#00695c" stroke-width="6"/><line x1="13150" y1="19350" x2="12950" y2="19350" stroke="#00695c" stroke-width="6"/><line x1="13650" y1="19350" x2="13850" y2="19350" stroke="#00695c" stroke-width="6"/><line x1="13150" y1="19750" x2="12950" y2="19750" stroke="#00695c" stroke-width="6"/><line x1="13650" y1="19750" x2="13850" y2="19750" stroke="#00695c" stroke-width="6"/><line x1="13150" y1="20150" x2="12950" y2="20150" stroke="#00695c" stroke-width="6"/><line x1="13650" y1="20150" x2="13850" y2="20150" stroke="#00695c" stroke-width="6"/><line x1="13150" y1="20550" x2="12950" y2="20550" stroke="#00695c" stroke-width="6"/><line x1="13650" y1="20550" x2="13850" y2="20550" stroke="#00695c" stroke-width="6"/><line x1="13150" y1="20950" x2="12950" y2="20950" stroke="#00695c" stroke-width="6"/><line x1="13650" y1="20950" x2="13850" y2="20950" stroke="#00695c" stroke-width="6"/><rect x="11100" y="18350" width="600" height="600" fill="#fff" stroke="#1a237e" stroke-width="8"/><line x1="10950" y1="18450" x2="11100" y2="18450" stroke="#1a237e" stroke-width="6"/><circle cx="10950" cy="18450" r="9" fill="#c62828"/><text x="11140" y="18468" font-family="Helvetica,Arial" font-size="50" fill="#455a64" text-anchor="start">FB</text><text x="11025" y="18425" font-family="Helvetica,Arial" font-size="40" fill="#9e9e9e" text-anchor="middle">1</text><line x1="10950" y1="18550" x2="11100" y2="18550" stroke="#1a237e" stroke-width="6"/><circle cx="10950" cy="18550" r="9" fill="#c62828"/><text x="11140" y="18568" font-family="Helvetica,Arial" font-size="50" fill="#455a64" text-anchor="start">BO</text><text x="11025" y="18525" font-family="Helvetica,Arial" font-size="40" fill="#9e9e9e" text-anchor="middle">2</text><line x1="10950" y1="18650" x2="11100" y2="18650" stroke="#1a237e" stroke-width="6"/><circle cx="10950" cy="18650" r="9" fill="#c62828"/><text x="11140" y="18668" font-family="Helvetica,Arial" font-size="50" fill="#455a64" text-anchor="start">CS</text><text x="11025" y="18625" font-family="Helvetica,Arial" font-size="40" fill="#9e9e9e" text-anchor="middle">3</text><line x1="10950" y1="18750" x2="11100" y2="18750" stroke="#1a237e" stroke-width="6"/><circle cx="10950" cy="18750" r="9" fill="#c62828"/><text x="11140" y="18768" font-family="Helvetica,Arial" font-size="50" fill="#455a64" text-anchor="start">SS</text><text x="11025" y="18725" font-family="Helvetica,Arial" font-size="40" fill="#9e9e9e" text-anchor="middle">8</text><line x1="11850" y1="18450" x2="11700" y2="18450" stroke="#1a237e" stroke-width="6"/><circle cx="11850" cy="18450" r="9" fill="#c62828"/><text x="11660" y="18468" font-family="Helvetica,Arial" font-size="50" fill="#455a64" text-anchor="end">DRV</text><text x="11775" y="18425" font-family="Helvetica,Arial" font-size="40" fill="#9e9e9e" text-anchor="middle">6</text><line x1="11200" y1="18200" x2="11200" y2="18050" stroke="#1a237e" stroke-width="6"/><circle cx="11200" cy="18200" r="9" fill="#c62828"/><text x="11200" y="18125" font-family="Helvetica,Arial" font-size="40" fill="#9e9e9e" text-anchor="middle">7</text><line x1="11200" y1="19100" x2="11200" y2="19250" stroke="#1a237e" stroke-width="6"/><circle cx="11200" cy="19100" r="9" fill="#c62828"/><text x="11200" y="19175" font-family="Helvetica,Arial" font-size="40" fill="#9e9e9e" text-anchor="middle">5</text><text x="11000" y="18250" font-family="Helvetica,Arial" font-size="50" fill="#6a1b9a" text-anchor="middle">UAUX</text><text x="11000" y="19080" font-family="Helvetica,Arial" font-size="50" fill="#00838f" text-anchor="middle">NCP1252A</text><rect x="11160" y="19700" width="80" height="200" fill="#fff" stroke="#1a237e" stroke-width="8"/><line x1="10950" y1="19800" x2="11120" y2="19800" stroke="#1a237e" stroke-width="6"/><circle cx="10950" cy="19800" r="9" fill="#c62828"/><text x="11160" y="19818" font-family="Helvetica,Arial" font-size="50" fill="#455a64" text-anchor="start">1</text><text x="11035" y="19775" font-family="Helvetica,Arial" font-size="40" fill="#9e9e9e" text-anchor="middle">1</text><line x1="11450" y1="19800" x2="11280" y2="19800" stroke="#1a237e" stroke-width="6"/><circle cx="11450" cy="19800" r="9" fill="#c62828"/><text x="11240" y="19818" font-family="Helvetica,Arial" font-size="50" fill="#455a64" text-anchor="end">2</text><text x="11365" y="19775" font-family="Helvetica,Arial" font-size="40" fill="#9e9e9e" text-anchor="middle">2</text><text x="11200" y="19640" font-family="Helvetica,Arial" font-size="50" fill="#6a1b9a" text-anchor="middle">CCLA</text><text x="11200" y="19970" font-family="Helvetica,Arial" font-size="50" fill="#00838f" text-anchor="middle">10nF</text><rect x="11110" y="20100" width="80" height="200" fill="#fff" stroke="#1a237e" stroke-width="8"/><line x1="10900" y1="20200" x2="11070" y2="20200" stroke="#1a237e" stroke-width="6"/><circle cx="10900" cy="20200" r="9" fill="#c62828"/><text x="11110" y="20218" font-family="Helvetica,Arial" font-size="50" fill="#455a64" text-anchor="start">1</text><text x="10985" y="20175" font-family="Helvetica,Arial" font-size="40" fill="#9e9e9e" text-anchor="middle">1</text><line x1="11400" y1="20200" x2="11230" y2="20200" stroke="#1a237e" stroke-width="6"/><circle cx="11400" cy="20200" r="9" fill="#c62828"/><text x="11190" y="20218" font-family="Helvetica,Arial" font-size="50" fill="#455a64" text-anchor="end">2</text><text x="11315" y="20175" font-family="Helvetica,Arial" font-size="40" fill="#9e9e9e" text-anchor="middle">2</text><text x="11150" y="20040" font-family="Helvetica,Arial" font-size="50" fill="#6a1b9a" text-anchor="middle">CCOMP</text><text x="11150" y="20370" font-family="Helvetica,Arial" font-size="50" fill="#00838f" text-anchor="middle">100nF</text><rect x="11110" y="20500" width="80" height="200" fill="#fff" stroke="#1a237e" stroke-width="8"/><line x1="10900" y1="20600" x2="11070" y2="20600" stroke="#1a237e" stroke-width="6"/><circle cx="10900" cy="20600" r="9" fill="#c62828"/><text x="11110" y="20618" font-family="Helvetica,Arial" font-size="50" fill="#455a64" text-anchor="start">1</text><text x="10985" y="20575" font-family="Helvetica,Arial" font-size="40" fill="#9e9e9e" text-anchor="middle">1</text><line x1="11400" y1="20600" x2="11230" y2="20600" stroke="#1a237e" stroke-width="6"/><circle cx="11400" cy="20600" r="9" fill="#c62828"/><text x="11190" y="20618" font-family="Helvetica,Arial" font-size="50" fill="#455a64" text-anchor="end">2</text><text x="11315" y="20575" font-family="Helvetica,Arial" font-size="40" fill="#9e9e9e" text-anchor="middle">2</text><text x="11150" y="20440" font-family="Helvetica,Arial" font-size="50" fill="#6a1b9a" text-anchor="middle">CCSF</text><text x="11150" y="20770" font-family="Helvetica,Arial" font-size="50" fill="#00838f" text-anchor="middle">470pF</text><rect x="13360" y="18450" width="80" height="200" fill="#fff" stroke="#1a237e" stroke-width="8"/><line x1="13150" y1="18550" x2="13320" y2="18550" stroke="#1a237e" stroke-width="6"/><circle cx="13150" cy="18550" r="9" fill="#c62828"/><text x="13360" y="18568" font-family="Helvetica,Arial" font-size="50" fill="#455a64" text-anchor="start">1</text><text x="13235" y="18525" font-family="Helvetica,Arial" font-size="40" fill="#9e9e9e" text-anchor="middle">1</text><line x1="13650" y1="18550" x2="13480" y2="18550" stroke="#1a237e" stroke-width="6"/><circle cx="13650" cy="18550" r="9" fill="#c62828"/><text x="13440" y="18568" font-family="Helvetica,Arial" font-size="50" fill="#455a64" text-anchor="end">2</text><text x="13565" y="18525" font-family="Helvetica,Arial" font-size="40" fill="#9e9e9e" text-anchor="middle">2</text><text x="13400" y="18390" font-family="Helvetica,Arial" font-size="50" fill="#6a1b9a" text-anchor="middle">RBR2</text><text x="13400" y="18720" font-family="Helvetica,Arial" font-size="50" fill="#00838f" text-anchor="middle">15k</text><rect x="13360" y="18850" width="80" height="200" fill="#fff" stroke="#1a237e" stroke-width="8"/><line x1="13150" y1="18950" x2="13320" y2="18950" stroke="#1a237e" stroke-width="6"/><circle cx="13150" cy="18950" r="9" fill="#c62828"/><text x="13360" y="18968" font-family="Helvetica,Arial" font-size="50" fill="#455a64" text-anchor="start">1</text><text x="13235" y="18925" font-family="Helvetica,Arial" font-size="40" fill="#9e9e9e" text-anchor="middle">1</text><line x1="13650" y1="18950" x2="13480" y2="18950" stroke="#1a237e" stroke-width="6"/><circle cx="13650" cy="18950" r="9" fill="#c62828"/><text x="13440" y="18968" font-family="Helvetica,Arial" font-size="50" fill="#455a64" text-anchor="end">2</text><text x="13565" y="18925" font-family="Helvetica,Arial" font-size="40" fill="#9e9e9e" text-anchor="middle">2</text><text x="13400" y="18790" font-family="Helvetica,Arial" font-size="50" fill="#6a1b9a" text-anchor="middle">RCLA1</text><text x="13400" y="19120" font-family="Helvetica,Arial" font-size="50" fill="#00838f" text-anchor="middle">47k</text><rect x="13360" y="19250" width="80" height="200" fill="#fff" stroke="#1a237e" stroke-width="8"/><line x1="13150" y1="19350" x2="13320" y2="19350" stroke="#1a237e" stroke-width="6"/><circle cx="13150" cy="19350" r="9" fill="#c62828"/><text x="13360" y="19368" font-family="Helvetica,Arial" font-size="50" fill="#455a64" text-anchor="start">1</text><text x="13235" y="19325" font-family="Helvetica,Arial" font-size="40" fill="#9e9e9e" text-anchor="middle">1</text><line x1="13650" y1="19350" x2="13480" y2="19350" stroke="#1a237e" stroke-width="6"/><circle cx="13650" cy="19350" r="9" fill="#c62828"/><text x="13440" y="19368" font-family="Helvetica,Arial" font-size="50" fill="#455a64" text-anchor="end">2</text><text x="13565" y="19325" font-family="Helvetica,Arial" font-size="40" fill="#9e9e9e" text-anchor="middle">2</text><text x="13400" y="19190" font-family="Helvetica,Arial" font-size="50" fill="#6a1b9a" text-anchor="middle">RCLA2</text><text x="13400" y="19520" font-family="Helvetica,Arial" font-size="50" fill="#00838f" text-anchor="middle">47k</text><rect x="13360" y="19650" width="80" height="200" fill="#fff" stroke="#1a237e" stroke-width="8"/><line x1="13150" y1="19750" x2="13320" y2="19750" stroke="#1a237e" stroke-width="6"/><circle cx="13150" cy="19750" r="9" fill="#c62828"/><text x="13360" y="19768" font-family="Helvetica,Arial" font-size="50" fill="#455a64" text-anchor="start">1</text><text x="13235" y="19725" font-family="Helvetica,Arial" font-size="40" fill="#9e9e9e" text-anchor="middle">1</text><line x1="13650" y1="19750" x2="13480" y2="19750" stroke="#1a237e" stroke-width="6"/><circle cx="13650" cy="19750" r="9" fill="#c62828"/><text x="13440" y="19768" font-family="Helvetica,Arial" font-size="50" fill="#455a64" text-anchor="end">2</text><text x="13565" y="19725" font-family="Helvetica,Arial" font-size="40" fill="#9e9e9e" text-anchor="middle">2</text><text x="13400" y="19590" font-family="Helvetica,Arial" font-size="50" fill="#6a1b9a" text-anchor="middle">RCOMP</text><text x="13400" y="19920" font-family="Helvetica,Arial" font-size="50" fill="#00838f" text-anchor="middle">10k</text><rect x="13360" y="20050" width="80" height="200" fill="#fff" stroke="#1a237e" stroke-width="8"/><line x1="13150" y1="20150" x2="13320" y2="20150" stroke="#1a237e" stroke-width="6"/><circle cx="13150" cy="20150" r="9" fill="#c62828"/><text x="13360" y="20168" font-family="Helvetica,Arial" font-size="50" fill="#455a64" text-anchor="start">1</text><text x="13235" y="20125" font-family="Helvetica,Arial" font-size="40" fill="#9e9e9e" text-anchor="middle">1</text><line x1="13650" y1="20150" x2="13480" y2="20150" stroke="#1a237e" stroke-width="6"/><circle cx="13650" cy="20150" r="9" fill="#c62828"/><text x="13440" y="20168" font-family="Helvetica,Arial" font-size="50" fill="#455a64" text-anchor="end">2</text><text x="13565" y="20125" font-family="Helvetica,Arial" font-size="40" fill="#9e9e9e" text-anchor="middle">2</text><text x="13400" y="19990" font-family="Helvetica,Arial" font-size="50" fill="#6a1b9a" text-anchor="middle">RCSF</text><text x="13400" y="20320" font-family="Helvetica,Arial" font-size="50" fill="#00838f" text-anchor="middle">1k</text><rect x="13360" y="20450" width="80" height="200" fill="#fff" stroke="#1a237e" stroke-width="8"/><line x1="13150" y1="20550" x2="13320" y2="20550" stroke="#1a237e" stroke-width="6"/><circle cx="13150" cy="20550" r="9" fill="#c62828"/><text x="13360" y="20568" font-family="Helvetica,Arial" font-size="50" fill="#455a64" text-anchor="start">1</text><text x="13235" y="20525" font-family="Helvetica,Arial" font-size="40" fill="#9e9e9e" text-anchor="middle">1</text><line x1="13650" y1="20550" x2="13480" y2="20550" stroke="#1a237e" stroke-width="6"/><circle cx="13650" cy="20550" r="9" fill="#c62828"/><text x="13440" y="20568" font-family="Helvetica,Arial" font-size="50" fill="#455a64" text-anchor="end">2</text><text x="13565" y="20525" font-family="Helvetica,Arial" font-size="40" fill="#9e9e9e" text-anchor="middle">2</text><text x="13400" y="20390" font-family="Helvetica,Arial" font-size="50" fill="#6a1b9a" text-anchor="middle">RFB1</text><text x="13400" y="20720" font-family="Helvetica,Arial" font-size="50" fill="#00838f" text-anchor="middle">118k</text><rect x="13360" y="20850" width="80" height="200" fill="#fff" stroke="#1a237e" stroke-width="8"/><line x1="13150" y1="20950" x2="13320" y2="20950" stroke="#1a237e" stroke-width="6"/><circle cx="13150" cy="20950" r="9" fill="#c62828"/><text x="13360" y="20968" font-family="Helvetica,Arial" font-size="50" fill="#455a64" text-anchor="start">1</text><text x="13235" y="20925" font-family="Helvetica,Arial" font-size="40" fill="#9e9e9e" text-anchor="middle">1</text><line x1="13650" y1="20950" x2="13480" y2="20950" stroke="#1a237e" stroke-width="6"/><circle cx="13650" cy="20950" r="9" fill="#c62828"/><text x="13440" y="20968" font-family="Helvetica,Arial" font-size="50" fill="#455a64" text-anchor="end">2</text><text x="13565" y="20925" font-family="Helvetica,Arial" font-size="40" fill="#9e9e9e" text-anchor="middle">2</text><text x="13400" y="20790" font-family="Helvetica,Arial" font-size="50" fill="#6a1b9a" text-anchor="middle">RFB2</text><text x="13400" y="21120" font-family="Helvetica,Arial" font-size="50" fill="#00838f" text-anchor="middle">10k</text><text x="10730" y="18466.2" font-family="Helvetica,Arial" font-size="45" fill="#ad1457" text-anchor="end">N_ACDC_96</text><text x="10730" y="18566.2" font-family="Helvetica,Arial" font-size="45" fill="#ad1457" text-anchor="end">N_ACDC_100</text><text x="10730" y="18666.2" font-family="Helvetica,Arial" font-size="45" fill="#ad1457" text-anchor="end">N_ACDC_98</text><text x="10730" y="18766.2" font-family="Helvetica,Arial" font-size="45" fill="#ad1457" text-anchor="end">N_ACDC_97</text><text x="12070" y="18466.2" font-family="Helvetica,Arial" font-size="45" fill="#ad1457" text-anchor="start">N_ACDC_99</text><text font-family="Helvetica,Arial" font-size="45" fill="#ad1457" text-anchor="end" transform="translate(11216.2 19280) rotate(-90)">DCN</text><text x="10730" y="19816.2" font-family="Helvetica,Arial" font-size="45" fill="#ad1457" text-anchor="end">N_ACDC_108</text><text x="11670" y="19816.2" font-family="Helvetica,Arial" font-size="45" fill="#ad1457" text-anchor="start">DCP</text><text x="10680" y="20216.2" font-family="Helvetica,Arial" font-size="45" fill="#ad1457" text-anchor="end">N_ACDC_97</text><text x="11620" y="20216.2" font-family="Helvetica,Arial" font-size="45" fill="#ad1457" text-anchor="start">DCN</text><text x="10680" y="20616.2" font-family="Helvetica,Arial" font-size="45" fill="#ad1457" text-anchor="end">N_ACDC_98</text><text x="11620" y="20616.2" font-family="Helvetica,Arial" font-size="45" fill="#ad1457" text-anchor="start">DCN</text><text x="12930" y="18566.2" font-family="Helvetica,Arial" font-size="45" fill="#ad1457" text-anchor="end">N_ACDC_100</text><text x="13870" y="18566.2" font-family="Helvetica,Arial" font-size="45" fill="#ad1457" text-anchor="start">DCN</text><text x="12930" y="18966.2" font-family="Helvetica,Arial" font-size="45" fill="#ad1457" text-anchor="end">N_ACDC_108</text><text x="13870" y="18966.2" font-family="Helvetica,Arial" font-size="45" fill="#ad1457" text-anchor="start">N_ACDC_109</text><text x="12930" y="19366.2" font-family="Helvetica,Arial" font-size="45" fill="#ad1457" text-anchor="end">N_ACDC_109</text><text x="13870" y="19366.2" font-family="Helvetica,Arial" font-size="45" fill="#ad1457" text-anchor="start">DCP</text><text x="12930" y="19766.2" font-family="Helvetica,Arial" font-size="45" fill="#ad1457" text-anchor="end">N_ACDC_97</text><text x="13870" y="19766.2" font-family="Helvetica,Arial" font-size="45" fill="#ad1457" text-anchor="start">N_ACDC_96</text><text x="12930" y="20166.2" font-family="Helvetica,Arial" font-size="45" fill="#ad1457" text-anchor="end">N_ACDC_102</text><text x="13870" y="20166.2" font-family="Helvetica,Arial" font-size="45" fill="#ad1457" text-anchor="start">N_ACDC_98</text><text x="12930" y="20566.2" font-family="Helvetica,Arial" font-size="45" fill="#ad1457" text-anchor="end">N_ACDC_95</text><text x="13870" y="20566.2" font-family="Helvetica,Arial" font-size="45" fill="#ad1457" text-anchor="start">N_ACDC_96</text><text x="12930" y="20966.2" font-family="Helvetica,Arial" font-size="45" fill="#ad1457" text-anchor="end">N_ACDC_96</text><text x="13870" y="20966.2" font-family="Helvetica,Arial" font-size="45" fill="#ad1457" text-anchor="start">DCN</text></svg>