<svg xmlns="http://www.w3.org/2000/svg" viewBox="0 0 1200 340" width="1200" height="340" role="img" aria-label="DC-Modules — 30, 40 and 50 kW SiC EV charging modules; 100 and 150 kW products. Power path: 3-phase AC, EMI and surge, Vienna PFC, DC link, 3-phase LLC, series/parallel output banks">
<style>
  .lbl{font:600 11px ui-monospace, SFMono-Regular, 'SF Mono', Menlo, Consolas, monospace;letter-spacing:2.4px;fill:#8B949E}
  .fam{font:600 17px -apple-system, BlinkMacSystemFont, 'Segoe UI', Helvetica, Arial, sans-serif;letter-spacing:.2px}
  .grat{stroke:#8B949E;stroke-opacity:.22;stroke-width:1;stroke-dasharray:1 5}
  .axis{stroke:#8B949E;stroke-opacity:.35;stroke-width:1}
  .tr{fill:none;stroke-width:2;stroke-linecap:round;stroke-linejoin:round}
  .scroll{animation:scroll var(--dur,12s) linear infinite}
  @keyframes scroll{to{transform:translateX(var(--shift))}}
  .sweep{animation:sweep 9s linear infinite}
  @keyframes sweep{from{transform:translateX(0)}to{transform:translateX(880px)}}
  .flow{animation:flow 2.8s linear infinite}
  @keyframes flow{to{stroke-dashoffset:-80}}
  .comet{animation:comet 7s linear infinite}
  .pulse{animation:pulse 3.2s ease-in-out infinite}
  @keyframes pulse{0%,100%{opacity:.35}50%{opacity:1}}
  
  @media (prefers-reduced-motion: reduce){.scroll,.sweep,.flow,.comet,.pulse{animation:none}}
</style>
<defs><clipPath id="hw"><rect x="700" y="60" width="460" height="120"/></clipPath>
<linearGradient id="glow" x1="0" y1="0" x2="0" y2="1"><stop offset="0" stop-color="#0E141B"/><stop offset="1" stop-color="#0A0E13"/></linearGradient></defs>
<rect x="1" y="1" width="1198" height="338" rx="18" fill="url(#glow)" stroke="#30363D" stroke-width="2"/>
<line x1="40" y1="22" x2="40" y2="318" stroke="#9198A1" stroke-opacity=".13" stroke-dasharray="1 5"/><line x1="120" y1="22" x2="120" y2="318" stroke="#9198A1" stroke-opacity=".13" stroke-dasharray="1 5"/><line x1="200" y1="22" x2="200" y2="318" stroke="#9198A1" stroke-opacity=".13" stroke-dasharray="1 5"/><line x1="280" y1="22" x2="280" y2="318" stroke="#9198A1" stroke-opacity=".13" stroke-dasharray="1 5"/><line x1="360" y1="22" x2="360" y2="318" stroke="#9198A1" stroke-opacity=".13" stroke-dasharray="1 5"/><line x1="440" y1="22" x2="440" y2="318" stroke="#9198A1" stroke-opacity=".13" stroke-dasharray="1 5"/><line x1="520" y1="22" x2="520" y2="318" stroke="#9198A1" stroke-opacity=".13" stroke-dasharray="1 5"/><line x1="600" y1="22" x2="600" y2="318" stroke="#9198A1" stroke-opacity=".13" stroke-dasharray="1 5"/><line x1="680" y1="22" x2="680" y2="318" stroke="#9198A1" stroke-opacity=".13" stroke-dasharray="1 5"/><line x1="760" y1="22" x2="760" y2="318" stroke="#9198A1" stroke-opacity=".13" stroke-dasharray="1 5"/><line x1="840" y1="22" x2="840" y2="318" stroke="#9198A1" stroke-opacity=".13" stroke-dasharray="1 5"/><line x1="920" y1="22" x2="920" y2="318" stroke="#9198A1" stroke-opacity=".13" stroke-dasharray="1 5"/><line x1="1000" y1="22" x2="1000" y2="318" stroke="#9198A1" stroke-opacity=".13" stroke-dasharray="1 5"/><line x1="1080" y1="22" x2="1080" y2="318" stroke="#9198A1" stroke-opacity=".13" stroke-dasharray="1 5"/><line x1="1160" y1="22" x2="1160" y2="318" stroke="#9198A1" stroke-opacity=".13" stroke-dasharray="1 5"/><line x1="24" y1="52" x2="1176" y2="52" stroke="#9198A1" stroke-opacity=".13" stroke-dasharray="1 5"/><line x1="24" y1="112" x2="1176" y2="112" stroke="#9198A1" stroke-opacity=".13" stroke-dasharray="1 5"/><line x1="24" y1="172" x2="1176" y2="172" stroke="#9198A1" stroke-opacity=".13" stroke-dasharray="1 5"/><line x1="24" y1="232" x2="1176" y2="232" stroke="#9198A1" stroke-opacity=".13" stroke-dasharray="1 5"/><line x1="24" y1="292" x2="1176" y2="292" stroke="#9198A1" stroke-opacity=".13" stroke-dasharray="1 5"/>
<g clip-path="url(#hw)"><g class="scroll" style="--shift:-280px;--dur:16s"><path class="tr" stroke="#E3B23C" stroke-opacity=".62" d="M700,118L706,113.4L712,109L718,104.6L724,100.6L730,96.8L736,93.4L742,90.5L748,88.1L754,86.2L760,84.9L766,84.1L772,84L778,84.5L784,85.7L790,87.4L796,89.6L802,92.4L808,95.6L814,99.3L820,103.2L826,107.5L832,111.9L838,116.5L844,121L850,125.6L856,129.9L862,134.1L868,138L874,141.5L880,144.6L886,147.2L892,149.3L898,150.8L904,151.7L910,152L916,151.7L922,150.8L928,149.3L934,147.2L940,144.6L946,141.5L952,138L958,134.1L964,129.9L970,125.6L976,121L982,116.5L988,111.9L994,107.5L1000,103.2L1006,99.3L1012,95.6L1018,92.4L1024,89.6L1030,87.4L1036,85.7L1042,84.5L1048,84L1054,84.1L1060,84.9L1066,86.2L1072,88.1L1078,90.5L1084,93.4L1090,96.8L1096,100.6L1102,104.6L1108,109L1114,113.4L1120,118L1126,122.6L1132,127L1138,131.4L1144,135.4L1150,139.2L1156,142.6L1162,145.5L1168,147.9L1174,149.8L1180,151.1L1186,151.9L1192,152L1198,151.5L1204,150.3L1210,148.6L1216,146.4L1222,143.6L1228,140.4L1234,136.7L1240,132.8L1246,128.5L1252,124.1L1258,119.5L1264,115L1270,110.4L1276,106.1L1282,101.9L1288,98L1294,94.5L1300,91.4L1306,88.8L1312,86.7L1318,85.2L1324,84.3L1330,84L1336,84.3L1342,85.2L1348,86.7L1354,88.8L1360,91.4L1366,94.5L1372,98L1378,101.9L1384,106.1L1390,110.4L1396,115L1402,119.5L1408,124.1L1414,128.5L1420,132.8L1426,136.7L1432,140.4L1438,143.6"/><path class="tr" stroke="#3BC1D4" stroke-opacity=".62" d="M700,147.4L706,149.5L712,150.9L718,151.8L724,152L730,151.6L736,150.6L742,149.1L748,146.9L754,144.3L760,141.1L766,137.6L772,133.7L778,129.5L784,125.1L790,120.5L796,116L802,111.4L808,107L814,102.8L820,98.8L826,95.2L832,92.1L838,89.3L844,87.1L850,85.5L856,84.5L862,84L868,84.2L874,85L880,86.4L886,88.3L892,90.8L898,93.8L904,97.2L910,101L916,105.1L922,109.4L928,113.9L934,118.5L940,123.1L946,127.5L952,131.8L958,135.9L964,139.6L970,142.9L976,145.8L982,148.2L988,150L994,151.3L1000,151.9L1006,151.9L1012,151.4L1018,150.2L1024,148.4L1030,146.1L1036,143.3L1042,140L1048,136.3L1054,132.3L1060,128L1066,123.6L1072,119L1078,114.4L1084,109.9L1090,105.6L1096,101.4L1102,97.6L1108,94.1L1114,91.1L1120,88.6L1126,86.5L1132,85.1L1138,84.2L1144,84L1150,84.4L1156,85.4L1162,86.9L1168,89.1L1174,91.7L1180,94.9L1186,98.4L1192,102.3L1198,106.5L1204,110.9L1210,115.5L1216,120L1222,124.6L1228,129L1234,133.2L1240,137.2L1246,140.8L1252,143.9L1258,146.7L1264,148.9L1270,150.5L1276,151.5L1282,152L1288,151.8L1294,151L1300,149.6L1306,147.7L1312,145.2L1318,142.2L1324,138.8L1330,135L1336,130.9L1342,126.6L1348,122.1L1354,117.5L1360,112.9L1366,108.5L1372,104.2L1378,100.1L1384,96.4L1390,93.1L1396,90.2L1402,87.8L1408,86L1414,84.7L1420,84.1L1426,84.1L1432,84.6L1438,85.8"/><path class="tr" stroke="#D46BB5" stroke-opacity=".62" d="M700,88.6L706,91.1L712,94.1L718,97.6L724,101.4L730,105.6L736,109.9L742,114.4L748,119L754,123.6L760,128L766,132.3L772,136.3L778,140L784,143.3L790,146.1L796,148.4L802,150.2L808,151.4L814,151.9L820,151.9L826,151.3L832,150L838,148.2L844,145.8L850,142.9L856,139.6L862,135.9L868,131.8L874,127.5L880,123.1L886,118.5L892,113.9L898,109.4L904,105.1L910,101L916,97.2L922,93.8L928,90.8L934,88.3L940,86.4L946,85L952,84.2L958,84L964,84.5L970,85.5L976,87.1L982,89.3L988,92.1L994,95.2L1000,98.8L1006,102.8L1012,107L1018,111.4L1024,116L1030,120.5L1036,125.1L1042,129.5L1048,133.7L1054,137.6L1060,141.1L1066,144.3L1072,146.9L1078,149.1L1084,150.6L1090,151.6L1096,152L1102,151.8L1108,150.9L1114,149.5L1120,147.4L1126,144.9L1132,141.9L1138,138.4L1144,134.6L1150,130.4L1156,126.1L1162,121.6L1168,117L1174,112.4L1180,108L1186,103.7L1192,99.7L1198,96L1204,92.7L1210,89.9L1216,87.6L1222,85.8L1228,84.6L1234,84.1L1240,84.1L1246,84.7L1252,86L1258,87.8L1264,90.2L1270,93.1L1276,96.4L1282,100.1L1288,104.2L1294,108.5L1300,112.9L1306,117.5L1312,122.1L1318,126.6L1324,130.9L1330,135L1336,138.8L1342,142.2L1348,145.2L1354,147.7L1360,149.6L1366,151L1372,151.8L1378,152L1384,151.5L1390,150.5L1396,148.9L1402,146.7L1408,143.9L1414,140.8L1420,137.2L1426,133.2L1432,129L1438,124.6"/></g></g>
<text x="62" y="80" style="font:600 13px ui-monospace, SFMono-Regular, 'SF Mono', Menlo, Consolas, monospace;letter-spacing:3px" fill="#D08A45">VECTIVOLT · EV FAST-CHARGING POWER PLATFORM</text>
<text x="58" y="140" style="font:700 60px -apple-system, BlinkMacSystemFont, 'Segoe UI', Helvetica, Arial, sans-serif;letter-spacing:-1px" fill="#E6EDF3">DC-Modules</text>
<text x="62" y="178" style="font:500 20px -apple-system, BlinkMacSystemFont, 'Segoe UI', Helvetica, Arial, sans-serif" fill="#9198A1">30 · 40 · 50 kW all-SiC modules  ·  100 kW = 2 × 50  ·  150 kW = 3 × 50 + CSU</text>
<line x1="209" y1="253" x2="231" y2="253" stroke="#30363D" stroke-width="2"/><line class="flow" x1="209" y1="253" x2="231" y2="253" stroke="#E3B23C" stroke-width="3" stroke-linecap="round" stroke-dasharray="8 32"/><line x1="399" y1="253" x2="421" y2="253" stroke="#30363D" stroke-width="2"/><line class="flow" x1="399" y1="253" x2="421" y2="253" stroke="#E3B23C" stroke-width="3" stroke-linecap="round" stroke-dasharray="8 32"/><line x1="589" y1="253" x2="611" y2="253" stroke="#30363D" stroke-width="2"/><line class="flow" x1="589" y1="253" x2="611" y2="253" stroke="#E3B23C" stroke-width="3" stroke-linecap="round" stroke-dasharray="8 32"/><line x1="779" y1="253" x2="801" y2="253" stroke="#30363D" stroke-width="2"/><line class="flow" x1="779" y1="253" x2="801" y2="253" stroke="#E3B23C" stroke-width="3" stroke-linecap="round" stroke-dasharray="8 32"/><line x1="969" y1="253" x2="991" y2="253" stroke="#30363D" stroke-width="2"/><line class="flow" x1="969" y1="253" x2="991" y2="253" stroke="#E3B23C" stroke-width="3" stroke-linecap="round" stroke-dasharray="8 32"/><rect x="45" y="214" width="160" height="78" rx="10" fill="#121A23" stroke="#E3B23C" stroke-width="1.6"/>
<rect x="45" y="228" width="4" height="50" rx="2" fill="#E3B23C"/>
<text x="63" y="248" style="font:650 18px -apple-system, BlinkMacSystemFont, 'Segoe UI', Helvetica, Arial, sans-serif" fill="#E6EDF3">3-φ AC</text><text x="63" y="273" style="font:500 14px ui-monospace, SFMono-Regular, 'SF Mono', Menlo, Consolas, monospace" fill="#9198A1">285–475 VAC</text><rect x="235" y="214" width="160" height="78" rx="10" fill="#121A23" stroke="#9198A1" stroke-width="1.6"/>
<rect x="235" y="228" width="4" height="50" rx="2" fill="#9198A1"/>
<text x="253" y="248" style="font:650 18px -apple-system, BlinkMacSystemFont, 'Segoe UI', Helvetica, Arial, sans-serif" fill="#E6EDF3">EMI + surge</text><text x="253" y="273" style="font:500 14px ui-monospace, SFMono-Regular, 'SF Mono', Menlo, Consolas, monospace" fill="#9198A1">CM · DM · MOV</text><rect x="425" y="214" width="160" height="78" rx="10" fill="#121A23" stroke="#3BC1D4" stroke-width="1.6"/>
<rect x="425" y="228" width="4" height="50" rx="2" fill="#3BC1D4"/>
<text x="443" y="248" style="font:650 18px -apple-system, BlinkMacSystemFont, 'Segoe UI', Helvetica, Arial, sans-serif" fill="#E6EDF3">Vienna PFC</text><text x="443" y="273" style="font:500 14px ui-monospace, SFMono-Regular, 'SF Mono', Menlo, Consolas, monospace" fill="#9198A1">50 kHz · SiC</text><rect x="615" y="214" width="160" height="78" rx="10" fill="#121A23" stroke="#D46BB5" stroke-width="1.6"/>
<rect x="615" y="228" width="4" height="50" rx="2" fill="#D46BB5"/>
<text x="633" y="248" style="font:650 18px -apple-system, BlinkMacSystemFont, 'Segoe UI', Helvetica, Arial, sans-serif" fill="#E6EDF3">DC link</text><text x="633" y="273" style="font:500 14px ui-monospace, SFMono-Regular, 'SF Mono', Menlo, Consolas, monospace" fill="#9198A1">650–830 V</text><rect x="805" y="214" width="160" height="78" rx="10" fill="#121A23" stroke="#5B9BE0" stroke-width="1.6"/>
<rect x="805" y="228" width="4" height="50" rx="2" fill="#5B9BE0"/>
<text x="823" y="248" style="font:650 18px -apple-system, BlinkMacSystemFont, 'Segoe UI', Helvetica, Arial, sans-serif" fill="#E6EDF3">3-φ LLC</text><text x="823" y="273" style="font:500 14px ui-monospace, SFMono-Regular, 'SF Mono', Menlo, Consolas, monospace" fill="#9198A1">140 kHz · ZVS</text><rect x="995" y="214" width="160" height="78" rx="10" fill="#121A23" stroke="#D08A45" stroke-width="1.6"/>
<rect x="995" y="228" width="4" height="50" rx="2" fill="#D08A45"/>
<text x="1013" y="248" style="font:650 18px -apple-system, BlinkMacSystemFont, 'Segoe UI', Helvetica, Arial, sans-serif" fill="#E6EDF3">S/P banks</text><text x="1013" y="273" style="font:500 14px ui-monospace, SFMono-Regular, 'SF Mono', Menlo, Consolas, monospace" fill="#9198A1">150–1000 VDC</text>
<circle class="pulse" cx="1142" cy="72" r="6" fill="#3FB950"/><text x="1128" y="77" text-anchor="end" style="font:600 12px ui-monospace, SFMono-Regular, 'SF Mono', Menlo, Consolas, monospace;letter-spacing:2px" fill="#3FB950">RUN</text>
</svg>
